<?xml version="1.0" standalone="no"?>
<!DOCTYPE svg PUBLIC "-//W3C//DTD SVG 20010904//EN"
 "http://www.w3.org/TR/2001/REC-SVG-20010904/DTD/svg10.dtd">
<svg version="1.0" xmlns="http://www.w3.org/2000/svg"
 width="1920.000000pt" height="195.000000pt" viewBox="0 0 1920.000000 195.000000"
 preserveAspectRatio="xMidYMid meet">

<g transform="translate(0.000000,195.000000) scale(0.100000,-0.100000)"
fill="#000000" stroke="none">
<path d="M1360 1135 l0 -605 65 0 65 0 0 280 c0 336 -6 320 118 320 122 0 116
15 120 -321 l3 -279 65 0 65 0 -3 293 -3 294 -28 41 c-15 23 -46 54 -69 69
-37 25 -51 28 -122 28 -58 0 -90 -5 -113 -18 l-33 -18 0 261 0 260 -65 0 -65
0 0 -605z"/>
<path d="M3150 1135 l0 -605 65 0 65 0 0 145 0 145 28 0 c24 0 45 -21 145
-145 l118 -145 70 0 70 0 -142 176 c-84 104 -138 181 -135 189 3 8 59 88 124
178 65 89 122 168 126 175 5 9 -9 12 -57 12 l-64 0 -119 -160 c-91 -121 -124
-159 -141 -160 l-23 0 0 400 0 400 -65 0 -65 0 0 -605z"/>
<path d="M6750 1135 l0 -605 70 0 70 0 0 605 0 605 -70 0 -70 0 0 -605z"/>
<path d="M18380 1480 c0 -143 -2 -260 -5 -260 -3 0 -17 7 -30 16 -32 21 -129
29 -180 15 -53 -14 -113 -65 -136 -115 -16 -36 -19 -68 -19 -241 0 -221 7
-251 66 -307 63 -59 178 -76 262 -38 42 19 42 19 42 0 0 -18 7 -20 65 -20 l65
0 0 605 0 605 -65 0 -65 0 0 -260z m-34 -358 c28 -19 34 -56 34 -226 0 -96 -4
-186 -9 -199 -24 -62 -191 -63 -220 -1 -7 16 -11 91 -11 203 0 165 2 180 21
205 19 24 26 26 97 26 42 0 82 -4 88 -8z"/>
<path d="M812 1649 c-46 -14 -118 -88 -131 -135 -14 -50 -14 -278 0 -327 13
-49 63 -105 114 -128 29 -14 65 -19 132 -19 87 0 93 -1 112 -26 19 -24 21 -40
21 -170 0 -129 -2 -146 -19 -163 -25 -25 -78 -35 -149 -28 -77 8 -92 27 -92
118 l0 69 -65 0 -65 0 0 -83 c0 -74 3 -88 29 -128 46 -74 87 -93 207 -97 120
-5 160 6 217 57 61 55 67 78 67 256 0 170 -8 206 -58 258 -42 45 -60 51 -175
57 -152 8 -152 8 -152 189 0 178 2 181 122 181 109 0 123 -12 123 -105 l0 -65
65 0 65 0 0 77 c0 96 -27 149 -97 190 -42 24 -59 28 -143 30 -52 1 -110 -2
-128 -8z"/>
<path d="M4150 1095 l0 -566 183 3 c213 4 240 12 295 92 l32 48 0 421 0 420
-25 43 c-16 27 -44 54 -73 71 -46 27 -51 28 -229 31 l-183 4 0 -567z m364 413
c14 -19 16 -76 16 -419 0 -475 13 -434 -144 -434 l-101 0 -3 438 -2 437 109 0
c102 0 111 -2 125 -22z"/>
<path d="M11600 1095 l0 -565 65 0 65 0 0 565 0 565 -65 0 -65 0 0 -565z"/>
<path d="M10830 1425 l0 -165 -40 0 -40 0 0 -65 0 -65 39 0 40 0 3 -233 3
-234 29 -41 c42 -61 110 -92 203 -92 l73 0 0 60 0 60 -49 0 c-59 0 -108 16
-121 40 -6 11 -10 111 -10 229 l0 211 90 0 90 0 0 65 0 65 -90 0 -90 0 0 165
0 165 -65 0 -65 0 0 -165z"/>
<path d="M16910 1425 l0 -165 -40 0 -40 0 0 -65 0 -65 40 0 40 0 0 -202 c1
-228 6 -265 48 -317 46 -57 84 -74 179 -79 l83 -5 0 61 0 60 -64 4 c-108 7
-106 2 -106 260 l0 218 85 0 85 0 0 65 0 65 -85 0 -85 0 0 165 0 165 -70 0
-70 0 0 -165z"/>
<path d="M2166 1245 c-66 -23 -126 -94 -126 -150 0 -24 2 -25 59 -25 55 0 59
2 71 30 15 36 64 54 127 47 68 -7 83 -27 83 -107 l0 -67 -108 -5 c-126 -5
-173 -25 -219 -91 -24 -34 -29 -53 -32 -118 -3 -70 0 -84 22 -121 57 -98 180
-136 286 -88 53 24 51 24 51 0 0 -18 7 -20 71 -20 l70 0 -3 288 c-3 275 -4
289 -25 329 -27 50 -73 87 -128 102 -54 15 -152 13 -199 -4z m214 -467 c0 -46
-4 -88 -8 -94 -26 -39 -152 -48 -196 -13 -23 18 -26 27 -26 84 0 57 3 66 26
84 23 18 41 21 115 21 l89 0 0 -82z"/>
<path d="M2700 895 l0 -365 65 0 64 0 3 279 c4 331 0 321 105 321 l63 0 0 65
0 65 -37 0 c-21 -1 -56 -7 -78 -15 -50 -18 -55 -18 -55 0 0 12 -14 15 -65 15
l-65 0 0 -365z"/>
<path d="M4986 1250 c-42 -13 -90 -49 -117 -88 -23 -34 -24 -42 -27 -254 -3
-206 -2 -222 18 -263 23 -48 66 -85 119 -103 20 -7 94 -12 177 -12 l144 0 0
59 0 59 -146 4 c-139 3 -147 4 -165 27 -14 17 -19 39 -19 87 l0 64 164 0 165
0 21 28 c20 25 22 36 18 137 -3 89 -8 118 -26 152 -26 50 -72 87 -127 102 -47
13 -157 13 -199 1z m194 -130 c17 -17 20 -33 20 -100 l0 -80 -115 0 -115 0 0
79 c0 74 2 81 26 100 38 30 155 30 184 1z"/>
<path d="M5444 1243 c26 -88 190 -629 202 -665 l16 -48 53 0 54 0 40 128 c70
223 181 590 181 596 0 3 -28 6 -63 6 l-62 0 -69 -247 c-37 -137 -72 -254 -76
-262 -4 -7 -38 97 -80 248 l-74 261 -63 0 c-57 0 -64 -2 -59 -17z"/>
<path d="M6248 1251 c-52 -17 -98 -53 -123 -95 -25 -42 -25 -46 -25 -262 0
-208 1 -221 23 -259 12 -21 42 -53 65 -70 l44 -30 164 -3 164 -4 0 60 0 60
-146 4 c-139 3 -147 4 -165 27 -14 17 -19 39 -19 87 l0 64 158 0 c211 0 202
-7 202 157 0 117 -2 129 -25 169 -40 68 -99 97 -204 101 -47 1 -98 -2 -113 -6z
m190 -131 c19 -18 22 -31 22 -100 l0 -80 -115 0 -115 0 0 80 c0 106 14 120
115 120 58 0 75 -4 93 -20z"/>
<path d="M7216 1248 c-51 -14 -121 -84 -135 -134 -14 -50 -14 -387 0 -437 14
-52 84 -122 134 -136 64 -18 184 -13 230 8 47 22 99 74 114 114 7 17 11 113
11 233 0 183 -2 209 -19 243 -26 50 -81 97 -128 110 -47 13 -155 12 -207 -1z
m204 -138 c19 -19 20 -33 20 -211 0 -105 -4 -199 -10 -209 -19 -36 -114 -52
-178 -29 -47 16 -54 54 -50 255 4 214 4 214 120 214 65 0 81 -3 98 -20z"/>
<path d="M7740 720 l0 -540 70 0 70 0 0 195 0 195 25 -16 c15 -10 55 -19 95
-22 61 -4 76 -1 123 22 36 17 64 41 83 68 l29 41 3 211 c2 131 -1 225 -7 247
-14 46 -87 114 -137 128 -58 16 -124 13 -171 -9 -43 -19 -43 -19 -43 0 0 18
-7 20 -70 20 l-70 0 0 -540z m350 390 c19 -19 20 -33 20 -214 0 -242 0 -241
-113 -241 -119 0 -117 -4 -117 238 0 244 -3 237 112 237 65 0 81 -3 98 -20z"/>
<path d="M8430 895 l0 -365 65 0 65 0 0 278 c0 333 -4 322 109 322 109 0 105
12 109 -321 l3 -279 64 0 65 0 0 280 c0 333 -4 320 108 320 107 0 102 15 102
-318 l0 -282 65 0 65 0 0 294 0 294 -32 48 c-49 71 -91 89 -208 89 -79 0 -101
-4 -131 -21 l-35 -21 -40 21 c-52 27 -167 29 -207 4 -33 -23 -37 -22 -37 2 0
18 -7 20 -65 20 l-65 0 0 -365z"/>
<path d="M9566 1245 c-49 -17 -93 -59 -117 -110 -16 -35 -19 -67 -19 -238 0
-215 6 -245 58 -301 53 -56 91 -66 260 -66 l152 0 0 60 0 60 -129 0 c-70 0
-142 5 -158 10 -38 14 -53 46 -53 115 l0 55 165 0 c212 0 205 -5 205 153 0 87
-5 121 -19 152 -23 51 -79 101 -128 114 -53 15 -170 13 -217 -4z m209 -130
c22 -21 25 -33 25 -100 l0 -75 -121 0 -121 0 4 81 c4 105 19 119 120 119 60 0
72 -3 93 -25z"/>
<path d="M10080 895 l0 -365 70 0 70 0 0 283 c0 336 -7 317 113 317 123 0 117
16 117 -320 l0 -280 65 0 66 0 -3 298 -3 299 -28 40 c-15 22 -46 50 -69 63
-55 31 -158 39 -212 16 -47 -20 -46 -19 -46 -1 0 12 -14 15 -70 15 l-70 0 0
-365z"/>
<path d="M11950 895 l0 -365 65 0 65 0 0 280 c0 336 -6 320 118 320 118 0 112
18 112 -318 l0 -282 70 0 70 0 0 266 c0 169 -4 282 -12 312 -30 118 -181 184
-313 137 -49 -18 -45 -18 -45 0 0 12 -14 15 -65 15 l-65 0 0 -365z"/>
<path d="M12765 1249 c-45 -13 -105 -67 -126 -113 -16 -35 -19 -68 -19 -239 0
-215 6 -245 58 -301 45 -48 96 -66 192 -66 96 0 147 18 192 66 33 35 58 93 58
134 l0 30 -65 0 c-58 0 -65 -2 -65 -20 0 -35 -22 -69 -53 -80 -69 -24 -162 -5
-178 37 -13 36 -12 369 2 396 18 33 28 37 111 37 71 0 78 -2 97 -26 12 -15 21
-37 21 -50 0 -23 3 -24 65 -24 l65 0 0 33 c-1 75 -72 165 -147 186 -45 13
-166 13 -208 0z"/>
<path d="M13439 1247 c-52 -20 -80 -41 -111 -88 l-28 -42 0 -222 0 -223 33
-48 c48 -71 90 -89 212 -89 122 0 164 18 213 89 l32 48 0 221 c0 218 0 221
-25 263 -40 68 -99 97 -204 101 -55 2 -99 -2 -122 -10z m201 -137 c19 -19 20
-33 20 -218 0 -241 2 -237 -115 -237 -117 0 -115 -3 -115 234 0 246 -2 241
111 241 66 0 82 -3 99 -20z"/>
<path d="M13980 895 l0 -365 65 0 64 0 3 279 c4 331 0 321 105 321 l63 0 0 65
0 65 -37 0 c-21 -1 -56 -7 -78 -15 -50 -18 -55 -18 -55 0 0 12 -14 15 -65 15
l-65 0 0 -365z"/>
<path d="M14420 720 l0 -540 70 0 70 0 0 195 0 195 25 -16 c15 -10 55 -19 95
-22 61 -4 76 -1 123 22 36 17 64 41 83 68 l29 41 3 211 c2 131 -1 225 -7 247
-14 46 -87 114 -137 128 -58 16 -124 13 -171 -9 -43 -19 -43 -19 -43 0 0 18
-7 20 -70 20 l-70 0 0 -540z m350 390 c19 -19 20 -33 20 -214 0 -242 0 -241
-113 -241 -119 0 -117 -4 -117 238 0 244 -3 237 112 237 65 0 81 -3 98 -20z"/>
<path d="M15236 1245 c-50 -18 -114 -80 -127 -125 -6 -21 -9 -119 -7 -246 l3
-211 29 -41 c42 -62 110 -92 205 -92 104 0 145 14 196 64 59 60 68 104 63 331
-3 163 -5 184 -25 222 -27 50 -73 87 -128 102 -55 15 -162 13 -209 -4z m206
-132 c16 -15 18 -35 18 -218 0 -245 2 -240 -117 -240 -113 0 -113 -1 -113 241
0 238 -2 234 117 234 57 0 81 -4 95 -17z"/>
<path d="M15780 895 l0 -365 70 0 70 0 0 283 c0 331 -4 317 98 317 l62 0 0 65
0 65 -37 0 c-21 -1 -56 -7 -78 -15 -49 -18 -45 -18 -45 0 0 12 -14 15 -70 15
l-70 0 0 -365z"/>
<path d="M16330 1248 c-51 -14 -100 -55 -121 -102 -32 -70 -28 -76 46 -76 57
0 65 2 65 18 0 70 178 84 209 16 6 -14 11 -49 11 -79 l0 -55 -86 0 c-47 0
-105 -5 -128 -11 -191 -48 -212 -326 -31 -410 63 -29 133 -24 228 16 13 5 17
2 17 -14 0 -19 6 -21 65 -21 l65 0 0 283 c0 251 -2 286 -19 322 -23 51 -79
101 -128 114 -47 13 -146 13 -193 -1z m210 -468 c0 -73 -2 -83 -26 -107 -23
-23 -31 -25 -99 -21 -98 5 -110 16 -110 104 0 93 15 104 141 104 l94 0 0 -80z"/>
<path d="M17518 1251 c-52 -17 -98 -53 -123 -95 -25 -42 -25 -46 -25 -262 0
-208 1 -221 23 -259 12 -21 42 -53 65 -70 l44 -30 164 -3 164 -4 0 60 0 60
-146 4 c-139 3 -147 4 -165 27 -14 17 -19 39 -19 87 l0 64 158 0 c211 0 202
-7 202 157 0 117 -2 129 -25 169 -40 68 -99 97 -204 101 -47 1 -98 -2 -113 -6z
m190 -131 c19 -18 22 -31 22 -100 l0 -80 -115 0 -115 0 0 80 c0 106 14 120
115 120 58 0 75 -4 93 -20z"/>
</g>
</svg>
